<svg width="1500" height="1500" viewBox="0 0 1500 1500" fill="none" xmlns="http://www.w3.org/2000/svg">
<rect width="1500" height="1500" fill="#151414"/>
<path d="M1092.82 423.311C1110.26 423.311 1127.16 430.711 1139.13 443.617C1150.66 456.063 1156.33 472.486 1154.98 490.091V490.092L1126.92 855.996L1126.92 856.038L1126.92 856.081C1125.61 875.324 1116.36 893.698 1101.51 906.426L822.536 1145.24L822.529 1145.25C810.944 1155.18 797.199 1160.31 782.697 1160.31C765.27 1160.31 748.371 1152.92 736.373 1140L736.371 1140C724.777 1127.51 719.045 1111.02 720.355 1093.33L720.354 1093.33L748.37 727.862C750.042 708.096 759.192 690.18 774.128 677.367L1052.95 438.394C1064.57 428.447 1078.3 423.311 1092.82 423.311Z" fill="#FBC7A7" stroke="black" stroke-width="20"/>
<path d="M407.528 423.311C422.04 423.311 435.776 428.447 447.388 438.394L726.214 677.361C741.132 690.158 750.277 708.029 751.966 727.777H751.967L779.987 1093.31V1093.31C781.299 1111.01 775.576 1127.52 763.979 1139.97L763.975 1139.98C751.974 1152.89 735.054 1160.28 717.639 1160.28H715.688C701.913 1159.83 688.878 1154.72 677.809 1145.24L677.808 1145.24L398.84 906.435C384.005 893.722 374.739 875.331 373.429 856.088L373.423 856.002L345.368 490.106V490.105L345.31 489.281C344.195 471.988 349.869 455.882 361.219 443.631V443.63C373.184 430.712 390.099 423.311 407.528 423.311Z" fill="#FDAE7C" stroke="black" stroke-width="20"/>
<path d="M751.16 340.311C776.711 340.311 798.651 354.926 808.421 378.604V378.606L948.489 717.872L948.506 717.91L948.522 717.949C956.036 735.721 956.065 756.298 948.551 774.337L807.26 1113.22L807.256 1113.23C797.46 1136.78 775.655 1151.31 750.08 1151.31C724.796 1151.31 703.156 1137.12 693.074 1114.04L692.604 1112.93L552.686 774.06C545.254 755.656 545.345 735.554 552.899 717.374L694 378.41L693.999 378.409C703.814 354.847 725.611 340.311 751.16 340.311Z" fill="#FFA166" stroke="black" stroke-width="20"/>
</svg>
